PathFileType	4	(X/Y/Z)	D:\TRACE\spot_10-12-23\spot_body_baseline_4-v60.trc
DataRate	CameraRate	NumFrames	NumMarkers	Units	OrigDataRate	OrigDataStartFrame	OrigNumFrames
100.00	100.00	      36	9	mm	100.00	4376	      7000
Frame#	Time	front left toe			Front right toe			aft left toe			aft right toe			Arm			FL body			FR body			AL Body			AR Body			
		X1	Y1	Z1	X2	Y2	Z2	X3	Y3	Z3	X4	Y4	Z4	X5	Y5	Z5	X6	Y6	Z6	X7	Y7	Z7	X8	Y8	Z8	X9	Y9	Z9	

4376	43.750	-218.10384	22.10098	192.19560	300.19858	92.72782	94.48929	-217.88037	27.66367	685.08899	334.93176	19.63409	600.91199	20.94660	806.37732	17.38580	-60.12064	543.54565	45.11718	92.14558	549.72870	28.88092	29.34320	551.39514	923.34430	180.11958	551.48718	910.47729	
4377	43.760	-218.13065	22.14413	192.18442	296.49017	103.67056	94.47031	-217.97839	27.48957	685.05487	334.90628	19.67781	600.92316	20.85779	806.64569	17.82257	-60.02427	543.59937	45.50526	92.15951	549.90094	29.49560	29.04207	551.29480	924.48187	179.54111	551.10968	910.93494	
4378	43.770	-218.21823	22.09726	192.20425	294.26248	112.65663	97.47765	-217.95154	27.45350	685.06415	334.96564	19.64797	600.90424	20.88579	807.07391	18.56104	-60.29472	543.84143	45.77052	91.90446	550.07257	29.69544	28.96373	551.05872	924.89630	179.43045	550.96460	911.30762	
4379	43.780	-218.39030	22.07460	192.27553	291.89304	121.08453	101.67542	-217.89552	27.56851	685.13409	335.00095	19.66488	600.91644	20.92347	807.40729	19.01689	-60.59265	543.84869	46.22591	91.41206	550.10474	29.85807	28.62541	551.13062	925.17047	179.97716	551.61768	912.45905	
4380	43.790	-218.28355	21.81915	192.44040	290.01581	128.18967	104.52977	-217.82660	27.60500	685.17224	335.00336	19.62839	600.86481	20.83452	807.38379	19.29434	-61.19990	543.85767	46.82396	90.83962	549.90015	30.25804	28.58866	550.99963	925.53107	179.53281	550.47900	911.97552	
4381	43.800	-218.34222	21.77796	192.46547	288.61087	135.45256	106.37302	-217.80215	27.63322	685.24530	334.99695	19.60696	600.85748	20.44161	807.20941	19.63743	-61.54844	543.84979	47.15671	90.57001	549.83435	30.61019	28.57877	550.77539	925.53906	179.58557	550.44818	912.33582	
4382	43.810	-218.51614	21.91377	192.38541	287.32413	140.81010	107.06402	-217.78249	27.59771	685.26233	334.99582	19.61638	600.84747	19.79462	806.98505	19.97490	-61.70694	543.88672	47.37587	90.20998	549.78967	30.92125	28.49361	550.70465	925.82465	179.43619	550.44873	912.42108	
4383	43.820	-218.38034	21.71338	192.49629	285.58432	143.41637	107.53057	-217.85416	27.57375	685.30359	334.97253	19.64865	600.86804	19.13327	806.93188	20.32428	-61.97867	544.03442	47.57537	90.12415	549.76257	31.34874	29.47602	550.34045	926.31909	179.37041	550.28473	912.61053	
4384	43.830	-218.45886	21.72101	192.54321	283.44312	143.36984	109.33522	-217.81650	27.51846	685.33917	334.98141	19.60976	600.84375	18.71886	807.00537	20.64614	-62.33816	544.21436	47.80056	89.91930	549.89044	31.53267	28.93078	550.54816	926.79572	179.43565	550.05170	912.75439	
4385	43.840	-218.52083	21.75135	192.57030	280.80191	141.88226	112.06920	-217.77042	27.56269	685.34326	335.02145	19.64074	600.85760	18.59284	807.30200	20.99597	-62.74811	544.35486	48.10520	89.71181	549.94806	32.01012	29.05381	550.50684	926.99915	179.69742	549.74298	913.07111	
4386	43.850	-218.55272	21.72267	192.59091	278.90622	139.58710	115.53541	-217.74564	27.64896	685.39026	335.00238	19.61491	600.78735	18.67764	807.53802	21.29610	-63.07119	544.44385	48.42216	89.45936	549.88239	31.97889	29.16662	550.47906	927.17383	180.43658	550.18176	914.09259	
4387	43.860	-218.54672	21.72136	192.60904	276.30566	138.73666	118.24448	-217.76918	27.72962	685.43188	335.04492	19.59071	600.82599	18.79950	807.59637	21.49871	-63.28040	544.51215	48.65739	89.08515	549.83057	32.08928	29.83333	550.19769	927.13513	180.58342	550.20135	914.19867	
4388	43.870	-218.59219	21.68538	192.61554	274.87271	138.10100	121.17370	-217.81064	27.75603	685.44281	335.02814	19.58114	600.81500	18.92191	807.46655	21.64477	-63.34402	544.47522	48.81441	88.91431	549.78052	32.18090	29.43238	550.53400	927.51813	180.71260	550.14258	914.25250	
4389	43.880	-218.58437	21.67185	192.62775	273.18564	138.29878	123.22634	-217.76672	27.75364	685.45880	335.01578	19.57792	600.82843	18.89738	807.31921	21.70548	-63.33472	544.41541	48.92625	88.73009	549.72998	32.21222	29.56240	550.57111	927.68854	180.69911	550.03394	914.31531	
4390	43.890	-218.55641	21.65224	192.63744	271.55966	138.32310	125.16950	-217.77905	27.79870	685.45337	335.57446	19.57533	600.38727	19.00623	807.17883	21.68635	-63.30545	544.37885	49.04535	88.68588	549.64746	32.28213	30.14654	550.34680	927.61041	180.19984	549.51556	913.81433	
4391	43.900	-218.57661	21.65426	192.60754	269.47543	138.57239	127.16886	-217.79300	27.80727	685.46136	334.98178	19.58531	600.85663	19.06524	807.10846	21.73471	-63.28070	544.34729	49.14157	88.59955	549.60107	32.31613	30.18430	550.37372	927.67773	180.18489	549.51678	913.92041	
4392	43.910	-218.60149	21.65743	192.64630	267.54779	137.43182	128.73430	-217.73856	27.80953	685.43622	334.73282	19.49723	600.86713	19.25677	807.08679	21.78205	-63.20444	544.33551	49.19828	88.66146	549.56561	32.37757	29.71751	550.62256	927.88556	180.17432	549.48425	914.01251	
4393	43.920	-218.57433	21.64611	192.60664	265.29956	135.82089	130.82916	-217.75381	27.78606	685.40491	334.45654	19.40183	600.86444	19.56882	807.07593	21.82430	-63.15775	544.35791	49.24725	88.73323	549.54932	32.40244	29.63784	550.61652	927.93890	180.14153	549.46008	914.04449	
4394	43.930	-218.51074	21.66981	192.61307	263.03244	132.63716	132.31824	-217.77228	27.73741	685.41333	333.62460	18.96618	600.71106	19.75880	807.10065	21.89740	-63.04554	544.36401	49.33840	88.87672	549.57123	32.47218	29.59194	550.63287	927.95392	180.11812	549.45874	914.15814	
4395	43.940	-218.45430	21.71292	192.57736	261.75018	126.09602	133.63156	-217.80257	27.69129	685.42523	335.37817	19.88205	601.01917	19.74588	807.21063	21.94860	-62.99123	544.46124	49.39751	88.91644	549.66589	32.48942	29.49685	550.62433	927.97015	180.02040	549.50061	914.17468	
4396	43.950	-218.36501	21.76884	192.54568	260.17072	117.50157	135.02922	-217.82060	27.74410	685.40997	335.37326	19.91694	600.99994	19.89936	807.32172	22.00534	-62.92817	544.52332	49.41674	89.16008	549.71082	32.58724	29.08668	550.62335	927.71478	179.98795	549.55109	914.21704	
4397	43.960	-218.28555	21.80934	192.50839	258.74954	106.77636	136.20898	-217.80597	27.75671	685.37158	335.35114	19.92903	601.00256	20.11686	807.43219	22.02467	-62.85206	544.73090	49.41940	89.27924	549.81396	32.58075	28.96894	550.72369	927.63776	179.91089	549.57825	914.19385	
4398	43.970	-218.43999	22.05900	192.37727	257.23584	95.11608	137.78932	-217.82103	27.77562	685.38220	335.38693	19.95504	601.03186	20.34344	807.53729	21.98963	-62.78838	544.91058	49.41869	89.38885	549.81793	32.60555	28.87086	550.81409	927.57404	179.94919	549.58661	914.19769	
4399	43.980	-218.42249	21.97821	192.42119	255.72707	83.07150	139.78326	-217.80356	27.76978	685.40808	335.38956	19.91556	600.99908	20.51859	807.56195	21.93551	-62.75485	544.93744	49.35191	89.40205	549.81561	32.55706	28.99114	550.86877	927.53436	179.97023	549.57532	914.19061	
4400	43.990	-218.30556	21.79891	192.51401	254.42458	71.94784	141.70242	-217.83086	27.80585	685.41785	335.41953	19.85921	601.02026	20.51221	807.48370	21.80652	-62.75308	544.82587	49.36130	89.45040	549.70715	32.51548	29.09158	550.97375	927.44153	180.03813	549.57587	914.15186	
4401	44.000	-218.42776	21.83866	192.49185	253.54050	61.23360	143.31836	-217.79594	27.83631	685.44800	335.45441	19.85156	601.03693	20.62174	807.38062	21.69569	-62.73071	544.60602	49.32298	89.41114	549.60565	32.40417	28.94267	551.11823	927.13324	180.10333	549.61554	914.04388	
4402	44.010	-218.32825	21.73302	192.51237	253.16359	51.04632	144.58723	-217.80025	27.86618	685.44220	335.43066	19.82112	601.04437	20.57190	807.18939	21.53825	-62.67865	544.41760	49.22340	89.45458	549.48749	32.30646	29.94044	550.41235	926.67188	180.12897	549.70587	913.91467	
4403	44.020	-218.41496	21.79430	192.46815	253.06421	41.04314	145.24702	-217.77278	27.85995	685.40613	335.52628	19.85429	601.03003	20.55408	806.94440	21.35104	-62.60666	544.20923	49.12558	89.42535	549.36530	32.25004	30.02216	550.36627	926.74921	180.20895	549.79785	913.81256	
4404	44.030	-218.35550	21.68697	192.50383	252.42099	30.90584	145.10789	-217.72189	27.85353	685.39746	335.47000	19.81390	601.04980	20.61402	806.69196	21.21012	-62.64098	544.16589	48.98185	89.45316	549.26770	32.15334	29.79131	550.40570	926.49658	180.24149	549.80170	913.65594	
4405	44.040	-218.47638	21.74173	192.48851	252.73518	20.23950	145.17798	-217.72333	27.87579	685.39630	336.73892	20.20730	600.72638	20.67291	806.56122	21.06454	-62.62998	544.14368	48.89773	89.48352	549.07416	32.04993	29.77947	550.42249	926.39764	180.31198	549.81628	913.50433	
4406	44.050	-218.42914	21.69503	192.49091	253.24362	20.10120	143.16873	-217.74478	27.87701	685.37238	335.45020	19.76458	600.99823	20.81944	806.54468	20.84509	-62.77193	544.20160	48.79408	89.41906	549.21375	31.95708	29.63106	550.44305	926.10681	180.33830	549.84912	913.44043	
4407	44.060	-218.29146	22.33555	192.78656	254.40504	21.09566	144.66678	-218.48886	26.03835	686.72601	336.49646	20.41704	599.97705	20.14094	807.11041	21.05174	-62.63638	544.77112	48.52243	89.76304	550.03229	31.98393	29.47528	550.40631	925.94666	180.09964	549.65289	913.26257	
4408	44.070	-218.36430	22.92016	192.66258	254.04778	20.66869	145.71021	-218.86334	26.83340	684.86780	335.42697	19.82787	601.17871	19.31322	808.35394	21.18359	-62.52939	545.81067	48.49831	89.91008	550.68494	32.07021	30.90539	551.28436	927.06470	180.34898	549.86188	913.26031	
4409	44.080	-218.38814	22.36980	192.79692	253.56070	21.17096	144.90662	-217.74860	27.49000	685.22223	335.48792	20.35086	600.72949	19.62960	809.41882	21.31504	-62.89174	546.11523	48.38540	89.72173	550.81299	31.95339	30.94458	552.25452	926.93372	180.77475	550.73572	912.86664	
4410	44.090	-218.58273	22.23827	192.90907	253.78699	21.22787	145.02835	-217.79620	27.03035	685.54742	335.55536	20.06037	600.68805	20.26231	809.69220	20.97097	-63.29999	546.28363	48.39912	89.28480	550.79181	31.79361	30.57727	553.60596	926.98413	181.08517	551.39984	912.60150	
4411	44.100	-218.62024	22.22040	192.86169	253.15889	21.08838	144.95584	-217.89563	27.09090	685.34125	335.57632	20.03036	600.62769	20.39156	809.08612	20.41176	-63.45994	546.59845	48.22445	89.03394	550.85254	31.32737	30.83897	553.86353	926.64465	181.35626	551.79449	912.25244	
